<mxfile host="Electron" agent="Mozilla/5.0 (Macintosh; Intel Mac OS X 10_15_7) AppleWebKit/537.36 (KHTML, like Gecko) draw.io/26.0.4 Chrome/128.0.6613.186 Electron/32.2.5 Safari/537.36" version="26.0.4">
  <diagram name="Page-1" id="vihZy8z0E8DFRusZt1xD">
    <mxGraphModel dx="886" dy="657" grid="1" gridSize="10" guides="1" tooltips="1" connect="1" arrows="1" fold="1" page="1" pageScale="1" pageWidth="850" pageHeight="1100" math="0" shadow="0">
      <root>
        <mxCell id="0" />
        <mxCell id="1" parent="0" />
        <mxCell id="JkesKB-A6FlV3lV3Gz2_-1" value="&lt;div style=&quot;background-color: rgb(30, 31, 34); color: rgb(188, 190, 196); font-family: &amp;quot;JetBrains Mono&amp;quot;, monospace; white-space: pre;&quot;&gt;&lt;font style=&quot;font-size: 25px;&quot;&gt;cpu_usage = &lt;span style=&quot;color: rgb(136, 136, 198);&quot;&gt;abs&lt;/span&gt;(&lt;span style=&quot;color: rgb(136, 136, 198);&quot;&gt;float&lt;/span&gt;(&lt;span style=&quot;color: rgb(136, 136, 198);&quot;&gt;input&lt;/span&gt;(&lt;span style=&quot;color: rgb(106, 171, 115);&quot;&gt;&quot;&quot;))&lt;/span&gt;&lt;br&gt;&lt;span style=&quot;color: rgb(122, 126, 133);&quot;&gt;&lt;br&gt;&lt;/span&gt;&lt;span style=&quot;color: rgb(207, 142, 109);&quot;&gt;if &lt;/span&gt;cpu_usage &amp;gt;= &lt;span style=&quot;color: rgb(42, 172, 184);&quot;&gt;90&lt;/span&gt;:&lt;br&gt;    &lt;span style=&quot;color: rgb(136, 136, 198);&quot;&gt;print&lt;/span&gt;(&lt;span style=&quot;color: rgb(106, 171, 115);&quot;&gt;&#39;critical !!!!!!! &#39;&lt;/span&gt;)&lt;br&gt;&lt;span style=&quot;color: rgb(207, 142, 109);&quot;&gt;elif &lt;/span&gt;&lt;span style=&quot;color: rgb(42, 172, 184);&quot;&gt;70 &lt;/span&gt;&amp;lt;= cpu_usage &amp;lt; &lt;span style=&quot;color: rgb(42, 172, 184);&quot;&gt;90&lt;/span&gt;:&lt;br&gt;    &lt;span style=&quot;color: rgb(136, 136, 198);&quot;&gt;print&lt;/span&gt;(&lt;span style=&quot;color: rgb(106, 171, 115);&quot;&gt;&#39;high :( &#39;&lt;/span&gt;)&lt;br&gt;&lt;span style=&quot;color: rgb(207, 142, 109);&quot;&gt;elif &lt;/span&gt;&lt;span style=&quot;color: rgb(42, 172, 184);&quot;&gt;50 &lt;/span&gt;&amp;lt;= cpu_usage &amp;lt; &lt;span style=&quot;color: rgb(42, 172, 184);&quot;&gt;70&lt;/span&gt;:&lt;br&gt;    &lt;span style=&quot;color: rgb(136, 136, 198);&quot;&gt;print&lt;/span&gt;(&lt;span style=&quot;color: rgb(106, 171, 115);&quot;&gt;&#39;medium :| &#39;&lt;/span&gt;)&lt;br&gt;&lt;span style=&quot;color: rgb(207, 142, 109);&quot;&gt;elif &lt;/span&gt;cpu_usage &amp;lt; &lt;span style=&quot;color: rgb(42, 172, 184);&quot;&gt;50&lt;/span&gt;:  &lt;span style=&quot;color: rgb(122, 126, 133);&quot;&gt;# else:&lt;br&gt;&lt;/span&gt;&lt;span style=&quot;color: rgb(122, 126, 133);&quot;&gt;    &lt;/span&gt;&lt;span style=&quot;color: rgb(136, 136, 198);&quot;&gt;print&lt;/span&gt;(&lt;span style=&quot;color: rgb(106, 171, 115);&quot;&gt;&#39;normal :) &#39;&lt;/span&gt;)&lt;/font&gt;&lt;span style=&quot;font-size: 28.5pt;&quot;&gt;&lt;br&gt;&lt;/span&gt;&lt;/div&gt;" style="text;whiteSpace=wrap;html=1;" vertex="1" parent="1">
          <mxGeometry x="60" y="20" width="560" height="800" as="geometry" />
        </mxCell>
        <mxCell id="JkesKB-A6FlV3lV3Gz2_-2" value="44" style="rounded=0;whiteSpace=wrap;html=1;fillColor=#f8cecc;strokeColor=#b85450;" vertex="1" parent="1">
          <mxGeometry x="625" y="30" width="50" height="30" as="geometry" />
        </mxCell>
        <mxCell id="JkesKB-A6FlV3lV3Gz2_-3" value="interpreter" style="triangle;whiteSpace=wrap;html=1;" vertex="1" parent="1">
          <mxGeometry x="10" y="90" width="50" height="30" as="geometry" />
        </mxCell>
        <mxCell id="JkesKB-A6FlV3lV3Gz2_-4" value="4n" style="text;html=1;align=center;verticalAlign=middle;whiteSpace=wrap;rounded=0;" vertex="1" parent="1">
          <mxGeometry x="620" y="60" width="60" height="30" as="geometry" />
        </mxCell>
        <mxCell id="JkesKB-A6FlV3lV3Gz2_-5" value="64" style="rounded=0;whiteSpace=wrap;html=1;fillColor=#f8cecc;strokeColor=#b85450;" vertex="1" parent="1">
          <mxGeometry x="695" y="30" width="50" height="30" as="geometry" />
        </mxCell>
        <mxCell id="JkesKB-A6FlV3lV3Gz2_-6" value="3n" style="text;html=1;align=center;verticalAlign=middle;whiteSpace=wrap;rounded=0;" vertex="1" parent="1">
          <mxGeometry x="690" y="60" width="60" height="30" as="geometry" />
        </mxCell>
        <mxCell id="JkesKB-A6FlV3lV3Gz2_-7" value="&lt;div style=&quot;background-color: rgb(30, 31, 34); color: rgb(188, 190, 196); font-family: &amp;quot;JetBrains Mono&amp;quot;, monospace; white-space: pre;&quot;&gt;&lt;font style=&quot;font-size: 25px;&quot;&gt;cpu_usage = &lt;span style=&quot;color: rgb(136, 136, 198);&quot;&gt;abs&lt;/span&gt;(&lt;span style=&quot;color: rgb(136, 136, 198);&quot;&gt;float&lt;/span&gt;(&lt;span style=&quot;color: rgb(136, 136, 198);&quot;&gt;input&lt;/span&gt;(&lt;span style=&quot;color: rgb(106, 171, 115);&quot;&gt;&quot;&quot;))&lt;/span&gt;&lt;br&gt;&lt;span style=&quot;color: rgb(122, 126, 133);&quot;&gt;&lt;br&gt;&lt;/span&gt;&lt;span style=&quot;color: rgb(207, 142, 109);&quot;&gt;if &lt;/span&gt;cpu_usage &amp;gt;= &lt;span style=&quot;color: rgb(42, 172, 184);&quot;&gt;90&lt;/span&gt;:&lt;br&gt;    &lt;span style=&quot;color: rgb(136, 136, 198);&quot;&gt;print&lt;/span&gt;(&lt;span style=&quot;color: rgb(106, 171, 115);&quot;&gt;&#39;critical !!!!!!! &#39;&lt;/span&gt;)&lt;br&gt;&lt;span style=&quot;color: rgb(207, 142, 109);&quot;&gt;elif &lt;/span&gt;&lt;span style=&quot;color: rgb(42, 172, 184);&quot;&gt;70 &lt;/span&gt;&amp;lt;= cpu_usage:&lt;br&gt;    &lt;span style=&quot;color: rgb(136, 136, 198);&quot;&gt;print&lt;/span&gt;(&lt;span style=&quot;color: rgb(106, 171, 115);&quot;&gt;&#39;high :( &#39;&lt;/span&gt;)&lt;br&gt;&lt;span style=&quot;color: rgb(207, 142, 109);&quot;&gt;elif &lt;/span&gt;&lt;span style=&quot;color: rgb(42, 172, 184);&quot;&gt;50 &lt;/span&gt;&amp;lt;= cpu_usage :&lt;br&gt;    &lt;span style=&quot;color: rgb(136, 136, 198);&quot;&gt;print&lt;/span&gt;(&lt;span style=&quot;color: rgb(106, 171, 115);&quot;&gt;&#39;medium :| &#39;&lt;/span&gt;)&lt;br&gt;&lt;span style=&quot;color: rgb(207, 142, 109);&quot;&gt;else :&lt;/span&gt;  &lt;span style=&quot;color: rgb(122, 126, 133);&quot;&gt;# else:&lt;br&gt;&lt;/span&gt;&lt;span style=&quot;color: rgb(122, 126, 133);&quot;&gt;    &lt;/span&gt;&lt;span style=&quot;color: rgb(136, 136, 198);&quot;&gt;print&lt;/span&gt;(&lt;span style=&quot;color: rgb(106, 171, 115);&quot;&gt;&#39;normal :) &#39;&lt;/span&gt;)&lt;/font&gt;&lt;span style=&quot;font-size: 28.5pt;&quot;&gt;&lt;br&gt;&lt;/span&gt;&lt;/div&gt;" style="text;whiteSpace=wrap;html=1;" vertex="1" parent="1">
          <mxGeometry x="60" y="460" width="560" height="800" as="geometry" />
        </mxCell>
        <mxCell id="JkesKB-A6FlV3lV3Gz2_-8" value="super sayan2&amp;nbsp;" style="rounded=0;whiteSpace=wrap;html=1;" vertex="1" parent="1">
          <mxGeometry x="555" y="370" width="120" height="60" as="geometry" />
        </mxCell>
        <mxCell id="JkesKB-A6FlV3lV3Gz2_-9" value="44" style="rounded=0;whiteSpace=wrap;html=1;fillColor=#f8cecc;strokeColor=#b85450;" vertex="1" parent="1">
          <mxGeometry x="615" y="470" width="50" height="30" as="geometry" />
        </mxCell>
        <mxCell id="JkesKB-A6FlV3lV3Gz2_-10" value="4n" style="text;html=1;align=center;verticalAlign=middle;whiteSpace=wrap;rounded=0;" vertex="1" parent="1">
          <mxGeometry x="610" y="500" width="60" height="30" as="geometry" />
        </mxCell>
        <mxCell id="JkesKB-A6FlV3lV3Gz2_-11" value="64" style="rounded=0;whiteSpace=wrap;html=1;fillColor=#f8cecc;strokeColor=#b85450;" vertex="1" parent="1">
          <mxGeometry x="685" y="470" width="50" height="30" as="geometry" />
        </mxCell>
        <mxCell id="JkesKB-A6FlV3lV3Gz2_-12" value="3n" style="text;html=1;align=center;verticalAlign=middle;whiteSpace=wrap;rounded=0;" vertex="1" parent="1">
          <mxGeometry x="680" y="500" width="60" height="30" as="geometry" />
        </mxCell>
        <mxCell id="JkesKB-A6FlV3lV3Gz2_-13" value="super sayan3" style="rounded=0;whiteSpace=wrap;html=1;" vertex="1" parent="1">
          <mxGeometry x="550" y="820" width="120" height="60" as="geometry" />
        </mxCell>
        <mxCell id="JkesKB-A6FlV3lV3Gz2_-14" value="interpreter" style="triangle;whiteSpace=wrap;html=1;" vertex="1" parent="1">
          <mxGeometry x="10" y="710" width="50" height="30" as="geometry" />
        </mxCell>
        <mxCell id="JkesKB-A6FlV3lV3Gz2_-16" value="60" style="rounded=0;whiteSpace=wrap;html=1;fillColor=#f8cecc;strokeColor=#b85450;" vertex="1" parent="1">
          <mxGeometry x="550" y="900" width="110" height="20" as="geometry" />
        </mxCell>
        <mxCell id="JkesKB-A6FlV3lV3Gz2_-17" value="20" style="rounded=0;whiteSpace=wrap;html=1;fillColor=#ffe6cc;strokeColor=#d79b00;" vertex="1" parent="1">
          <mxGeometry x="660" y="900" width="70" height="20" as="geometry" />
        </mxCell>
        <mxCell id="JkesKB-A6FlV3lV3Gz2_-18" value="6" style="rounded=0;whiteSpace=wrap;html=1;fillColor=#fff2cc;strokeColor=#d6b656;" vertex="1" parent="1">
          <mxGeometry x="730" y="900" width="70" height="20" as="geometry" />
        </mxCell>
        <mxCell id="JkesKB-A6FlV3lV3Gz2_-19" value="0-2" style="rounded=0;whiteSpace=wrap;html=1;fillColor=#f5f5f5;strokeColor=#666666;fontColor=#333333;" vertex="1" parent="1">
          <mxGeometry x="800" y="900" width="40" height="20" as="geometry" />
        </mxCell>
        <mxCell id="JkesKB-A6FlV3lV3Gz2_-20" value="0" style="text;html=1;align=center;verticalAlign=middle;whiteSpace=wrap;rounded=0;" vertex="1" parent="1">
          <mxGeometry x="520" y="910" width="60" height="30" as="geometry" />
        </mxCell>
        <mxCell id="JkesKB-A6FlV3lV3Gz2_-21" value="50" style="text;html=1;align=center;verticalAlign=middle;whiteSpace=wrap;rounded=0;" vertex="1" parent="1">
          <mxGeometry x="630" y="910" width="60" height="30" as="geometry" />
        </mxCell>
        <mxCell id="JkesKB-A6FlV3lV3Gz2_-22" value="70" style="text;html=1;align=center;verticalAlign=middle;whiteSpace=wrap;rounded=0;" vertex="1" parent="1">
          <mxGeometry x="700" y="910" width="60" height="30" as="geometry" />
        </mxCell>
        <mxCell id="JkesKB-A6FlV3lV3Gz2_-23" value="90" style="text;html=1;align=center;verticalAlign=middle;whiteSpace=wrap;rounded=0;" vertex="1" parent="1">
          <mxGeometry x="770" y="910" width="60" height="30" as="geometry" />
        </mxCell>
        <mxCell id="JkesKB-A6FlV3lV3Gz2_-24" value="" style="shape=flexArrow;endArrow=classic;html=1;rounded=0;" edge="1" parent="1">
          <mxGeometry width="50" height="50" relative="1" as="geometry">
            <mxPoint x="840" y="950" as="sourcePoint" />
            <mxPoint x="760" y="950" as="targetPoint" />
          </mxGeometry>
        </mxCell>
        <mxCell id="JkesKB-A6FlV3lV3Gz2_-25" value="" style="shape=flexArrow;endArrow=classic;html=1;rounded=0;" edge="1" parent="1">
          <mxGeometry width="50" height="50" relative="1" as="geometry">
            <mxPoint x="550" y="960" as="sourcePoint" />
            <mxPoint x="610" y="960" as="targetPoint" />
          </mxGeometry>
        </mxCell>
        <mxCell id="JkesKB-A6FlV3lV3Gz2_-26" value="&lt;div style=&quot;background-color: rgb(30, 31, 34); color: rgb(188, 190, 196); font-family: &amp;quot;JetBrains Mono&amp;quot;, monospace; white-space: pre;&quot;&gt;&lt;font style=&quot;font-size: 25px;&quot;&gt;cpu_usage = &lt;span style=&quot;color: rgb(136, 136, 198);&quot;&gt;abs&lt;/span&gt;(&lt;span style=&quot;color: rgb(136, 136, 198);&quot;&gt;float&lt;/span&gt;(&lt;span style=&quot;color: rgb(136, 136, 198);&quot;&gt;input&lt;/span&gt;(&lt;span style=&quot;color: rgb(106, 171, 115);&quot;&gt;&quot;&quot;))&lt;/span&gt;&lt;br&gt;&lt;span style=&quot;color: rgb(122, 126, 133);&quot;&gt;&lt;br&gt;&lt;/span&gt;&lt;span style=&quot;color: rgb(207, 142, 109);&quot;&gt;if &lt;/span&gt;cpu_usage &amp;lt;= 5&lt;span style=&quot;color: rgb(42, 172, 184);&quot;&gt;0&lt;/span&gt;:&lt;br&gt;    &lt;/font&gt;&lt;span style=&quot;font-size: 25px; color: rgb(122, 126, 133);&quot;&gt;    &lt;/span&gt;&lt;span style=&quot;font-size: 25px; color: rgb(136, 136, 198);&quot;&gt;print&lt;/span&gt;&lt;span style=&quot;font-size: 25px;&quot;&gt;(&lt;/span&gt;&lt;span style=&quot;font-size: 25px; color: rgb(106, 171, 115);&quot;&gt;&#39;normal :) &#39;&lt;/span&gt;&lt;span style=&quot;font-size: 25px;&quot;&gt;)&lt;/span&gt;&lt;/div&gt;&lt;div style=&quot;background-color: rgb(30, 31, 34); color: rgb(188, 190, 196); font-family: &amp;quot;JetBrains Mono&amp;quot;, monospace; white-space: pre;&quot;&gt;&lt;font style=&quot;font-size: 25px;&quot;&gt;&lt;span style=&quot;color: rgb(207, 142, 109);&quot;&gt;elif &lt;/span&gt;&lt;span style=&quot;color: rgb(42, 172, 184);&quot;&gt;70 &amp;gt;=&lt;/span&gt; cpu_usage:&lt;br&gt;    &lt;span style=&quot;color: rgb(136, 136, 198);&quot;&gt;print&lt;/span&gt;(&lt;span style=&quot;color: rgb(106, 171, 115);&quot;&gt;&#39;high :( &#39;&lt;/span&gt;)&lt;br&gt;&lt;span style=&quot;color: rgb(207, 142, 109);&quot;&gt;elif 90&lt;/span&gt;&lt;span style=&quot;color: rgb(42, 172, 184);&quot;&gt; &amp;gt;&lt;/span&gt;= cpu_usage :&lt;br&gt;    &lt;span style=&quot;color: rgb(136, 136, 198);&quot;&gt;print&lt;/span&gt;(&lt;span style=&quot;color: rgb(106, 171, 115);&quot;&gt;&#39;medium :| &#39;&lt;/span&gt;)&lt;br&gt;&lt;span style=&quot;color: rgb(207, 142, 109);&quot;&gt;else :&lt;/span&gt;  &lt;span style=&quot;color: rgb(122, 126, 133);&quot;&gt;# else:&lt;/span&gt;&lt;/font&gt;&lt;span style=&quot;font-size: 28.5pt;&quot;&gt;&lt;br&gt;&lt;/span&gt;&lt;/div&gt;&lt;div style=&quot;background-color: rgb(30, 31, 34); color: rgb(188, 190, 196); font-family: &amp;quot;JetBrains Mono&amp;quot;, monospace; white-space: pre;&quot;&gt;&lt;font style=&quot;font-size: 25px;&quot;&gt;&lt;span style=&quot;color: rgb(122, 126, 133);&quot;&gt;    &lt;/span&gt;&lt;/font&gt;&lt;span style=&quot;background-color: light-dark(rgb(30, 31, 34), rgb(30, 31, 34)); font-size: 25px; color: rgb(136, 136, 198);&quot;&gt;print&lt;/span&gt;&lt;span style=&quot;color: light-dark(rgb(188, 190, 196), rgb(188, 190, 196)); background-color: light-dark(rgb(30, 31, 34), rgb(30, 31, 34)); font-size: 25px;&quot;&gt;(&lt;/span&gt;&lt;span style=&quot;background-color: light-dark(rgb(30, 31, 34), rgb(30, 31, 34)); font-size: 25px; color: rgb(106, 171, 115);&quot;&gt;&#39;critical !!!!!!! &#39;&lt;/span&gt;&lt;span style=&quot;color: light-dark(rgb(188, 190, 196), rgb(188, 190, 196)); background-color: light-dark(rgb(30, 31, 34), rgb(30, 31, 34)); font-size: 25px;&quot;&gt;)&lt;/span&gt;&lt;/div&gt;" style="text;whiteSpace=wrap;html=1;" vertex="1" parent="1">
          <mxGeometry x="60" y="850" width="520" height="330" as="geometry" />
        </mxCell>
        <mxCell id="JkesKB-A6FlV3lV3Gz2_-27" value="&lt;div style=&quot;background-color: rgb(30, 31, 34); color: rgb(188, 190, 196); font-family: &amp;quot;JetBrains Mono&amp;quot;, monospace; white-space: pre;&quot;&gt;&lt;font style=&quot;font-size: 25px;&quot;&gt;cpu_usage = &lt;span style=&quot;color: rgb(136, 136, 198);&quot;&gt;abs&lt;/span&gt;(&lt;span style=&quot;color: rgb(136, 136, 198);&quot;&gt;float&lt;/span&gt;(&lt;span style=&quot;color: rgb(136, 136, 198);&quot;&gt;input&lt;/span&gt;(&lt;span style=&quot;color: rgb(106, 171, 115);&quot;&gt;&quot;&quot;))&lt;/span&gt;&lt;br&gt;&lt;span style=&quot;color: rgb(122, 126, 133);&quot;&gt;alert = &#39;&#39;&lt;br&gt;&lt;/span&gt;&lt;span style=&quot;color: rgb(207, 142, 109);&quot;&gt;if &lt;/span&gt;cpu_usage &amp;lt;= 5&lt;span style=&quot;color: rgb(42, 172, 184);&quot;&gt;0&lt;/span&gt;:&lt;br&gt;    &lt;/font&gt;&lt;span style=&quot;font-size: 25px; color: rgb(122, 126, 133);&quot;&gt;    &lt;/span&gt;&lt;span style=&quot;font-size: 25px; color: rgb(136, 136, 198);&quot;&gt;alert =&lt;/span&gt;&lt;span style=&quot;font-size: 25px; color: rgb(106, 171, 115);&quot;&gt;&#39;normal&#39;&lt;/span&gt;&lt;/div&gt;&lt;div style=&quot;background-color: rgb(30, 31, 34); font-family: &amp;quot;JetBrains Mono&amp;quot;, monospace; white-space: pre;&quot;&gt;&lt;font style=&quot;font-size: 25px;&quot;&gt;&lt;span style=&quot;color: rgb(207, 142, 109);&quot;&gt;elif &lt;/span&gt;&lt;span style=&quot;color: rgb(42, 172, 184);&quot;&gt;70 &amp;gt;=&lt;/span&gt;&lt;font style=&quot;color: light-dark(rgb(75, 5, 240), transparent);&quot;&gt; &lt;/font&gt;&lt;font style=&quot;color: light-dark(rgb(75, 5, 240), transparent);&quot;&gt;cpu_usage&lt;/font&gt;&lt;font style=&quot;color: light-dark(rgb(75, 5, 240), transparent);&quot;&gt;:&lt;br&gt;    &lt;/font&gt;&lt;font color=&quot;#8888c6&quot;&gt;alert = &lt;/font&gt;&lt;span style=&quot;color: rgb(106, 171, 115);&quot;&gt;&#39;high &#39;&lt;/span&gt;&lt;font style=&quot;color: light-dark(rgb(75, 5, 240), transparent);&quot;&gt;&lt;br&gt;&lt;/font&gt;&lt;span style=&quot;color: rgb(207, 142, 109);&quot;&gt;elif 90&lt;/span&gt;&lt;span style=&quot;color: rgb(42, 172, 184);&quot;&gt; &amp;gt;&lt;/span&gt;&lt;font style=&quot;color: light-dark(rgb(75, 5, 240), transparent);&quot;&gt;= cpu_usage :&lt;br&gt;    &lt;/font&gt;&lt;font color=&quot;#8888c6&quot;&gt;alert = &lt;/font&gt;&lt;span style=&quot;color: rgb(106, 171, 115);&quot;&gt;&#39;medium :&#39;&lt;/span&gt;&lt;font style=&quot;color: light-dark(rgb(75, 5, 240), transparent);&quot;&gt;&lt;br&gt;&lt;/font&gt;&lt;span style=&quot;color: rgb(207, 142, 109);&quot;&gt;else :&lt;/span&gt;&lt;font style=&quot;color: light-dark(rgb(75, 5, 240), transparent);&quot;&gt;  &lt;/font&gt;&lt;span style=&quot;color: rgb(122, 126, 133);&quot;&gt;# else:&lt;/span&gt;&lt;/font&gt;&lt;span style=&quot;color: light-dark(rgb(188, 190, 196), rgb(188, 190, 196)); font-size: 28.5pt;&quot;&gt;&lt;br&gt;&lt;/span&gt;&lt;/div&gt;&lt;div style=&quot;background-color: rgb(30, 31, 34); font-family: &amp;quot;JetBrains Mono&amp;quot;, monospace; white-space: pre; color: rgb(188, 190, 196);&quot;&gt;&lt;font style=&quot;font-size: 25px;&quot;&gt;&lt;span style=&quot;color: rgb(122, 126, 133);&quot;&gt;    &lt;/span&gt;&lt;span style=&quot;color: rgb(122, 126, 133);&quot;&gt;&lt;font color=&quot;#8888c6&quot;&gt;alert = &lt;/font&gt;&lt;/span&gt;&lt;/font&gt;&lt;span style=&quot;color: rgb(106, 171, 115); background-color: light-dark(rgb(30, 31, 34), rgb(30, 31, 34)); font-size: 25px;&quot;&gt;&#39;critical !!!!!!! &#39;&lt;br/&gt;print(alert)&lt;/span&gt;&lt;/div&gt;" style="text;whiteSpace=wrap;html=1;" vertex="1" parent="1">
          <mxGeometry x="70" y="1220" width="520" height="330" as="geometry" />
        </mxCell>
        <mxCell id="JkesKB-A6FlV3lV3Gz2_-28" value="Lists" style="rounded=0;whiteSpace=wrap;html=1;" vertex="1" parent="1">
          <mxGeometry x="380" y="1650" width="120" height="60" as="geometry" />
        </mxCell>
        <mxCell id="JkesKB-A6FlV3lV3Gz2_-29" value="" style="rounded=0;whiteSpace=wrap;html=1;fillColor=#d5e8d4;strokeColor=#82b366;" vertex="1" parent="1">
          <mxGeometry x="40" y="1730" width="170" height="360" as="geometry" />
        </mxCell>
        <mxCell id="JkesKB-A6FlV3lV3Gz2_-30" value="" style="rounded=0;whiteSpace=wrap;html=1;fillColor=#e1d5e7;strokeColor=#9673a6;" vertex="1" parent="1">
          <mxGeometry x="210" y="1730" width="380" height="360" as="geometry" />
        </mxCell>
        <mxCell id="JkesKB-A6FlV3lV3Gz2_-31" value="addr" style="rounded=0;whiteSpace=wrap;html=1;" vertex="1" parent="1">
          <mxGeometry x="695" y="1700" width="45" height="20" as="geometry" />
        </mxCell>
        <mxCell id="JkesKB-A6FlV3lV3Gz2_-32" value="value" style="rounded=0;whiteSpace=wrap;html=1;" vertex="1" parent="1">
          <mxGeometry x="675" y="1800" width="45" height="20" as="geometry" />
        </mxCell>
        <mxCell id="JkesKB-A6FlV3lV3Gz2_-33" value="is last" style="rounded=0;whiteSpace=wrap;html=1;" vertex="1" parent="1">
          <mxGeometry x="675" y="1820" width="45" height="20" as="geometry" />
        </mxCell>
        <mxCell id="JkesKB-A6FlV3lV3Gz2_-34" value="addr" style="rounded=0;whiteSpace=wrap;html=1;" vertex="1" parent="1">
          <mxGeometry x="270" y="1760" width="45" height="20" as="geometry" />
        </mxCell>
        <mxCell id="JkesKB-A6FlV3lV3Gz2_-35" value="value" style="rounded=0;whiteSpace=wrap;html=1;" vertex="1" parent="1">
          <mxGeometry x="270" y="1780" width="45" height="20" as="geometry" />
        </mxCell>
        <mxCell id="JkesKB-A6FlV3lV3Gz2_-48" style="edgeStyle=orthogonalEdgeStyle;rounded=0;orthogonalLoop=1;jettySize=auto;html=1;" edge="1" parent="1" source="JkesKB-A6FlV3lV3Gz2_-36" target="JkesKB-A6FlV3lV3Gz2_-37">
          <mxGeometry relative="1" as="geometry" />
        </mxCell>
        <mxCell id="JkesKB-A6FlV3lV3Gz2_-36" value="is last" style="rounded=0;whiteSpace=wrap;html=1;" vertex="1" parent="1">
          <mxGeometry x="270" y="1800" width="45" height="20" as="geometry" />
        </mxCell>
        <mxCell id="JkesKB-A6FlV3lV3Gz2_-37" value="addr" style="rounded=0;whiteSpace=wrap;html=1;" vertex="1" parent="1">
          <mxGeometry x="450" y="1800" width="45" height="20" as="geometry" />
        </mxCell>
        <mxCell id="JkesKB-A6FlV3lV3Gz2_-38" value="value" style="rounded=0;whiteSpace=wrap;html=1;" vertex="1" parent="1">
          <mxGeometry x="450" y="1820" width="45" height="20" as="geometry" />
        </mxCell>
        <mxCell id="JkesKB-A6FlV3lV3Gz2_-49" style="edgeStyle=orthogonalEdgeStyle;rounded=0;orthogonalLoop=1;jettySize=auto;html=1;" edge="1" parent="1" source="JkesKB-A6FlV3lV3Gz2_-39" target="JkesKB-A6FlV3lV3Gz2_-40">
          <mxGeometry relative="1" as="geometry" />
        </mxCell>
        <mxCell id="JkesKB-A6FlV3lV3Gz2_-39" value="is last" style="rounded=0;whiteSpace=wrap;html=1;" vertex="1" parent="1">
          <mxGeometry x="450" y="1840" width="45" height="20" as="geometry" />
        </mxCell>
        <mxCell id="JkesKB-A6FlV3lV3Gz2_-40" value="addr" style="rounded=0;whiteSpace=wrap;html=1;" vertex="1" parent="1">
          <mxGeometry x="317.5" y="1940" width="45" height="20" as="geometry" />
        </mxCell>
        <mxCell id="JkesKB-A6FlV3lV3Gz2_-41" value="value" style="rounded=0;whiteSpace=wrap;html=1;" vertex="1" parent="1">
          <mxGeometry x="317.5" y="1960" width="45" height="20" as="geometry" />
        </mxCell>
        <mxCell id="JkesKB-A6FlV3lV3Gz2_-42" value="is last" style="rounded=0;whiteSpace=wrap;html=1;" vertex="1" parent="1">
          <mxGeometry x="317.5" y="1980" width="45" height="20" as="geometry" />
        </mxCell>
        <mxCell id="JkesKB-A6FlV3lV3Gz2_-43" value="add" style="rounded=0;whiteSpace=wrap;html=1;" vertex="1" parent="1">
          <mxGeometry x="100" y="1980" width="45" height="20" as="geometry" />
        </mxCell>
        <mxCell id="JkesKB-A6FlV3lV3Gz2_-44" value="name" style="rounded=0;whiteSpace=wrap;html=1;" vertex="1" parent="1">
          <mxGeometry x="100" y="2000" width="45" height="20" as="geometry" />
        </mxCell>
        <mxCell id="JkesKB-A6FlV3lV3Gz2_-45" value="add" style="rounded=0;whiteSpace=wrap;html=1;" vertex="1" parent="1">
          <mxGeometry x="70" y="1810" width="45" height="20" as="geometry" />
        </mxCell>
        <mxCell id="JkesKB-A6FlV3lV3Gz2_-47" style="edgeStyle=orthogonalEdgeStyle;rounded=0;orthogonalLoop=1;jettySize=auto;html=1;entryX=0;entryY=0.5;entryDx=0;entryDy=0;" edge="1" parent="1" source="JkesKB-A6FlV3lV3Gz2_-46" target="JkesKB-A6FlV3lV3Gz2_-34">
          <mxGeometry relative="1" as="geometry" />
        </mxCell>
        <mxCell id="JkesKB-A6FlV3lV3Gz2_-46" value="name" style="rounded=0;whiteSpace=wrap;html=1;" vertex="1" parent="1">
          <mxGeometry x="70" y="1830" width="45" height="20" as="geometry" />
        </mxCell>
        <mxCell id="JkesKB-A6FlV3lV3Gz2_-50" value="Lists" style="rounded=0;whiteSpace=wrap;html=1;" vertex="1" parent="1">
          <mxGeometry x="110" y="2230" width="120" height="60" as="geometry" />
        </mxCell>
        <mxCell id="JkesKB-A6FlV3lV3Gz2_-52" value="l = list()" style="text;html=1;align=center;verticalAlign=middle;whiteSpace=wrap;rounded=0;" vertex="1" parent="1">
          <mxGeometry x="40" y="2350" width="60" height="30" as="geometry" />
        </mxCell>
        <mxCell id="JkesKB-A6FlV3lV3Gz2_-53" value="l = [ ]" style="text;html=1;align=center;verticalAlign=middle;whiteSpace=wrap;rounded=0;" vertex="1" parent="1">
          <mxGeometry x="30" y="2370" width="60" height="30" as="geometry" />
        </mxCell>
        <mxCell id="JkesKB-A6FlV3lV3Gz2_-54" value="l = [ &amp;lt;str&amp;gt;&amp;nbsp; ,&amp;lt;int&amp;gt; ,&amp;lt;float&amp;gt; , &amp;lt;bool&amp;gt; , &amp;lt;list&amp;gt; ]" style="text;html=1;align=center;verticalAlign=middle;whiteSpace=wrap;rounded=0;" vertex="1" parent="1">
          <mxGeometry x="40" y="2390" width="230" height="30" as="geometry" />
        </mxCell>
        <mxCell id="JkesKB-A6FlV3lV3Gz2_-55" value="number = [1&amp;nbsp; ,2 ,3 , 4 ,5 ]" style="text;html=1;align=center;verticalAlign=middle;whiteSpace=wrap;rounded=0;" vertex="1" parent="1">
          <mxGeometry x="40" y="2410" width="140" height="30" as="geometry" />
        </mxCell>
        <mxCell id="JkesKB-A6FlV3lV3Gz2_-56" value="dishes = [&#39;pizza&#39;&amp;nbsp; ,&#39;pasta&#39; ,&#39;khatshapori&#39; ]" style="text;html=1;align=center;verticalAlign=middle;whiteSpace=wrap;rounded=0;" vertex="1" parent="1">
          <mxGeometry x="40" y="2430" width="220" height="30" as="geometry" />
        </mxCell>
        <mxCell id="JkesKB-A6FlV3lV3Gz2_-57" value="message = [ 41414 , &#39;kawabanga&#39; , True]" style="text;html=1;align=center;verticalAlign=middle;whiteSpace=wrap;rounded=0;" vertex="1" parent="1">
          <mxGeometry x="40" y="2450" width="220" height="30" as="geometry" />
        </mxCell>
        <mxCell id="JkesKB-A6FlV3lV3Gz2_-72" value="tuple" style="rounded=0;whiteSpace=wrap;html=1;" vertex="1" parent="1">
          <mxGeometry x="365" y="2230" width="120" height="60" as="geometry" />
        </mxCell>
        <mxCell id="JkesKB-A6FlV3lV3Gz2_-73" value="l = tuple()" style="text;html=1;align=center;verticalAlign=middle;whiteSpace=wrap;rounded=0;" vertex="1" parent="1">
          <mxGeometry x="315" y="2350" width="60" height="30" as="geometry" />
        </mxCell>
        <mxCell id="JkesKB-A6FlV3lV3Gz2_-74" value="l = ()" style="text;html=1;align=center;verticalAlign=middle;whiteSpace=wrap;rounded=0;" vertex="1" parent="1">
          <mxGeometry x="305" y="2370" width="60" height="30" as="geometry" />
        </mxCell>
        <mxCell id="JkesKB-A6FlV3lV3Gz2_-75" value="l = ( &amp;lt;str&amp;gt;&amp;nbsp; ,&amp;lt;int&amp;gt; ,&amp;lt;float&amp;gt; , &amp;lt;bool&amp;gt; , &amp;lt;list&amp;gt; )" style="text;html=1;align=center;verticalAlign=middle;whiteSpace=wrap;rounded=0;" vertex="1" parent="1">
          <mxGeometry x="315" y="2390" width="230" height="30" as="geometry" />
        </mxCell>
        <mxCell id="JkesKB-A6FlV3lV3Gz2_-76" value="number = (1&amp;nbsp; ,2 ,3 , 4 ,5 )" style="text;html=1;align=center;verticalAlign=middle;whiteSpace=wrap;rounded=0;" vertex="1" parent="1">
          <mxGeometry x="315" y="2410" width="140" height="30" as="geometry" />
        </mxCell>
        <mxCell id="JkesKB-A6FlV3lV3Gz2_-77" value="dishes = (&#39;pizza&#39;&amp;nbsp; ,&#39;pasta&#39; ,&#39;khatshapori&#39; )" style="text;html=1;align=center;verticalAlign=middle;whiteSpace=wrap;rounded=0;" vertex="1" parent="1">
          <mxGeometry x="315" y="2430" width="220" height="30" as="geometry" />
        </mxCell>
        <mxCell id="JkesKB-A6FlV3lV3Gz2_-78" value="message = (41414 , &#39;kawabanga&#39; , True)" style="text;html=1;align=center;verticalAlign=middle;whiteSpace=wrap;rounded=0;" vertex="1" parent="1">
          <mxGeometry x="315" y="2450" width="220" height="30" as="geometry" />
        </mxCell>
        <mxCell id="JkesKB-A6FlV3lV3Gz2_-79" value="set" style="rounded=0;whiteSpace=wrap;html=1;" vertex="1" parent="1">
          <mxGeometry x="665" y="2230" width="120" height="60" as="geometry" />
        </mxCell>
        <mxCell id="JkesKB-A6FlV3lV3Gz2_-80" value="l = set()" style="text;html=1;align=center;verticalAlign=middle;whiteSpace=wrap;rounded=0;" vertex="1" parent="1">
          <mxGeometry x="610" y="2350" width="60" height="30" as="geometry" />
        </mxCell>
        <mxCell id="JkesKB-A6FlV3lV3Gz2_-81" value="l = {}" style="text;html=1;align=center;verticalAlign=middle;whiteSpace=wrap;rounded=0;" vertex="1" parent="1">
          <mxGeometry x="600" y="2370" width="60" height="30" as="geometry" />
        </mxCell>
        <mxCell id="JkesKB-A6FlV3lV3Gz2_-82" value="l = { &amp;lt;str&amp;gt;&amp;nbsp; ,&amp;lt;int&amp;gt; ,&amp;lt;float&amp;gt; , &amp;lt;bool&amp;gt; , &amp;lt;list&amp;gt; }" style="text;html=1;align=center;verticalAlign=middle;whiteSpace=wrap;rounded=0;" vertex="1" parent="1">
          <mxGeometry x="610" y="2390" width="230" height="30" as="geometry" />
        </mxCell>
        <mxCell id="JkesKB-A6FlV3lV3Gz2_-83" value="number = {1&amp;nbsp; ,2 ,3 , 4 ,5 }" style="text;html=1;align=center;verticalAlign=middle;whiteSpace=wrap;rounded=0;" vertex="1" parent="1">
          <mxGeometry x="610" y="2410" width="140" height="30" as="geometry" />
        </mxCell>
        <mxCell id="JkesKB-A6FlV3lV3Gz2_-84" value="dishes = {&#39;pizza&#39;&amp;nbsp; ,&#39;pasta&#39; ,&#39;khatshapori&#39; }" style="text;html=1;align=center;verticalAlign=middle;whiteSpace=wrap;rounded=0;" vertex="1" parent="1">
          <mxGeometry x="610" y="2430" width="220" height="30" as="geometry" />
        </mxCell>
        <mxCell id="JkesKB-A6FlV3lV3Gz2_-85" value="message = {41414 , &#39;kawabanga&#39; , True}" style="text;html=1;align=center;verticalAlign=middle;whiteSpace=wrap;rounded=0;" vertex="1" parent="1">
          <mxGeometry x="610" y="2450" width="220" height="30" as="geometry" />
        </mxCell>
        <mxCell id="JkesKB-A6FlV3lV3Gz2_-88" style="edgeStyle=orthogonalEdgeStyle;rounded=0;orthogonalLoop=1;jettySize=auto;html=1;" edge="1" parent="1" source="JkesKB-A6FlV3lV3Gz2_-86" target="JkesKB-A6FlV3lV3Gz2_-87">
          <mxGeometry relative="1" as="geometry" />
        </mxCell>
        <mxCell id="JkesKB-A6FlV3lV3Gz2_-91" style="edgeStyle=orthogonalEdgeStyle;rounded=0;orthogonalLoop=1;jettySize=auto;html=1;" edge="1" parent="1" source="JkesKB-A6FlV3lV3Gz2_-86" target="JkesKB-A6FlV3lV3Gz2_-90">
          <mxGeometry relative="1" as="geometry">
            <Array as="points">
              <mxPoint x="770" y="2530" />
              <mxPoint x="770" y="4220" />
              <mxPoint x="430" y="4220" />
            </Array>
          </mxGeometry>
        </mxCell>
        <mxCell id="JkesKB-A6FlV3lV3Gz2_-86" value="loop" style="rounded=0;whiteSpace=wrap;html=1;" vertex="1" parent="1">
          <mxGeometry x="370" y="2500" width="120" height="60" as="geometry" />
        </mxCell>
        <mxCell id="JkesKB-A6FlV3lV3Gz2_-95" value="" style="edgeStyle=orthogonalEdgeStyle;rounded=0;orthogonalLoop=1;jettySize=auto;html=1;" edge="1" parent="1" source="JkesKB-A6FlV3lV3Gz2_-87" target="JkesKB-A6FlV3lV3Gz2_-93">
          <mxGeometry relative="1" as="geometry" />
        </mxCell>
        <mxCell id="JkesKB-A6FlV3lV3Gz2_-87" value="known iterations" style="rounded=0;whiteSpace=wrap;html=1;" vertex="1" parent="1">
          <mxGeometry x="150" y="2590" width="120" height="60" as="geometry" />
        </mxCell>
        <mxCell id="JkesKB-A6FlV3lV3Gz2_-203" value="" style="edgeStyle=orthogonalEdgeStyle;rounded=0;orthogonalLoop=1;jettySize=auto;html=1;" edge="1" parent="1" source="JkesKB-A6FlV3lV3Gz2_-90" target="JkesKB-A6FlV3lV3Gz2_-202">
          <mxGeometry relative="1" as="geometry" />
        </mxCell>
        <mxCell id="JkesKB-A6FlV3lV3Gz2_-90" value="unknown iterations" style="rounded=0;whiteSpace=wrap;html=1;" vertex="1" parent="1">
          <mxGeometry x="370" y="4450" width="120" height="60" as="geometry" />
        </mxCell>
        <mxCell id="JkesKB-A6FlV3lV3Gz2_-93" value="for" style="rounded=0;whiteSpace=wrap;html=1;" vertex="1" parent="1">
          <mxGeometry x="170" y="2690" width="80" height="30" as="geometry" />
        </mxCell>
        <mxCell id="JkesKB-A6FlV3lV3Gz2_-96" value="range" style="rounded=0;whiteSpace=wrap;html=1;fillColor=#ffe6cc;strokeColor=#d79b00;" vertex="1" parent="1">
          <mxGeometry x="90" y="2760" width="80" height="30" as="geometry" />
        </mxCell>
        <mxCell id="JkesKB-A6FlV3lV3Gz2_-97" value="list" style="rounded=0;whiteSpace=wrap;html=1;fillColor=#ffe6cc;strokeColor=#d79b00;" vertex="1" parent="1">
          <mxGeometry x="90" y="2790" width="80" height="30" as="geometry" />
        </mxCell>
        <mxCell id="JkesKB-A6FlV3lV3Gz2_-98" value="tuple" style="rounded=0;whiteSpace=wrap;html=1;fillColor=#ffe6cc;strokeColor=#d79b00;" vertex="1" parent="1">
          <mxGeometry x="90" y="2820" width="80" height="30" as="geometry" />
        </mxCell>
        <mxCell id="JkesKB-A6FlV3lV3Gz2_-99" value="set" style="rounded=0;whiteSpace=wrap;html=1;fillColor=#ffe6cc;strokeColor=#d79b00;" vertex="1" parent="1">
          <mxGeometry x="90" y="2850" width="80" height="30" as="geometry" />
        </mxCell>
        <mxCell id="JkesKB-A6FlV3lV3Gz2_-100" value="str" style="rounded=0;whiteSpace=wrap;html=1;fillColor=#ffe6cc;strokeColor=#d79b00;" vertex="1" parent="1">
          <mxGeometry x="90" y="2880" width="80" height="30" as="geometry" />
        </mxCell>
        <mxCell id="JkesKB-A6FlV3lV3Gz2_-101" value="for each item in the collection do&amp;nbsp;" style="text;html=1;align=center;verticalAlign=middle;whiteSpace=wrap;rounded=0;" vertex="1" parent="1">
          <mxGeometry x="100" y="2725" width="205" height="25" as="geometry" />
        </mxCell>
        <mxCell id="JkesKB-A6FlV3lV3Gz2_-102" value="range(1,6)" style="rounded=0;whiteSpace=wrap;html=1;fillColor=#ffe6cc;strokeColor=#d79b00;" vertex="1" parent="1">
          <mxGeometry x="170" y="2760" width="80" height="30" as="geometry" />
        </mxCell>
        <mxCell id="JkesKB-A6FlV3lV3Gz2_-103" value="[1,2,3,4,5]" style="rounded=0;whiteSpace=wrap;html=1;fillColor=#ffe6cc;strokeColor=#d79b00;" vertex="1" parent="1">
          <mxGeometry x="170" y="2790" width="80" height="30" as="geometry" />
        </mxCell>
        <mxCell id="JkesKB-A6FlV3lV3Gz2_-104" value="(&#39;moo&#39;,&#39;joo&#39;,&#39;goo&#39;)" style="rounded=0;whiteSpace=wrap;html=1;fillColor=#ffe6cc;strokeColor=#d79b00;" vertex="1" parent="1">
          <mxGeometry x="170" y="2820" width="80" height="30" as="geometry" />
        </mxCell>
        <mxCell id="JkesKB-A6FlV3lV3Gz2_-105" value="{1,2,3}" style="rounded=0;whiteSpace=wrap;html=1;fillColor=#ffe6cc;strokeColor=#d79b00;" vertex="1" parent="1">
          <mxGeometry x="170" y="2850" width="80" height="30" as="geometry" />
        </mxCell>
        <mxCell id="JkesKB-A6FlV3lV3Gz2_-106" value="&#39;labneh &#39;" style="rounded=0;whiteSpace=wrap;html=1;fillColor=#ffe6cc;strokeColor=#d79b00;" vertex="1" parent="1">
          <mxGeometry x="170" y="2880" width="80" height="30" as="geometry" />
        </mxCell>
        <mxCell id="JkesKB-A6FlV3lV3Gz2_-107" value="5 iterations" style="rounded=0;whiteSpace=wrap;html=1;fillColor=#ffe6cc;strokeColor=#d79b00;" vertex="1" parent="1">
          <mxGeometry x="250" y="2760" width="80" height="30" as="geometry" />
        </mxCell>
        <mxCell id="JkesKB-A6FlV3lV3Gz2_-108" value="5 iterations" style="rounded=0;whiteSpace=wrap;html=1;fillColor=#ffe6cc;strokeColor=#d79b00;" vertex="1" parent="1">
          <mxGeometry x="250" y="2790" width="80" height="30" as="geometry" />
        </mxCell>
        <mxCell id="JkesKB-A6FlV3lV3Gz2_-109" value="3 iterations" style="rounded=0;whiteSpace=wrap;html=1;fillColor=#ffe6cc;strokeColor=#d79b00;" vertex="1" parent="1">
          <mxGeometry x="250" y="2820" width="80" height="30" as="geometry" />
        </mxCell>
        <mxCell id="JkesKB-A6FlV3lV3Gz2_-110" value="3 iterations" style="rounded=0;whiteSpace=wrap;html=1;fillColor=#ffe6cc;strokeColor=#d79b00;" vertex="1" parent="1">
          <mxGeometry x="250" y="2850" width="80" height="30" as="geometry" />
        </mxCell>
        <mxCell id="JkesKB-A6FlV3lV3Gz2_-111" value="7 iterations" style="rounded=0;whiteSpace=wrap;html=1;fillColor=#ffe6cc;strokeColor=#d79b00;" vertex="1" parent="1">
          <mxGeometry x="250" y="2880" width="80" height="30" as="geometry" />
        </mxCell>
        <mxCell id="JkesKB-A6FlV3lV3Gz2_-112" value="shawarma" style="rounded=0;whiteSpace=wrap;html=1;fillColor=#f5f5f5;fontColor=#333333;strokeColor=#666666;" vertex="1" parent="1">
          <mxGeometry x="100" y="2970" width="77.5" height="30" as="geometry" />
        </mxCell>
        <mxCell id="JkesKB-A6FlV3lV3Gz2_-113" value="foods:" style="rounded=0;whiteSpace=wrap;html=1;" vertex="1" parent="1">
          <mxGeometry x="12.5" y="2960" width="77.5" height="30" as="geometry" />
        </mxCell>
        <mxCell id="JkesKB-A6FlV3lV3Gz2_-114" value="sushi" style="rounded=0;whiteSpace=wrap;html=1;fillColor=#f5f5f5;fontColor=#333333;strokeColor=#666666;" vertex="1" parent="1">
          <mxGeometry x="177.5" y="2970" width="77.5" height="30" as="geometry" />
        </mxCell>
        <mxCell id="JkesKB-A6FlV3lV3Gz2_-115" value="ramen" style="rounded=0;whiteSpace=wrap;html=1;fillColor=#f5f5f5;fontColor=#333333;strokeColor=#666666;" vertex="1" parent="1">
          <mxGeometry x="255" y="2970" width="77.5" height="30" as="geometry" />
        </mxCell>
        <mxCell id="JkesKB-A6FlV3lV3Gz2_-116" value="salad" style="rounded=0;whiteSpace=wrap;html=1;fillColor=#f5f5f5;fontColor=#333333;strokeColor=#666666;" vertex="1" parent="1">
          <mxGeometry x="332.5" y="2970" width="77.5" height="30" as="geometry" />
        </mxCell>
        <mxCell id="JkesKB-A6FlV3lV3Gz2_-118" value="for item in foods :&lt;div&gt;&lt;span style=&quot;white-space: pre;&quot;&gt;&#x9;&lt;/span&gt;print(item)&lt;/div&gt;&lt;div&gt;&lt;br&gt;&lt;/div&gt;&lt;div&gt;&lt;br&gt;&lt;/div&gt;&lt;div&gt;# shawarma&lt;/div&gt;&lt;div&gt;# sushi&lt;/div&gt;" style="rounded=0;whiteSpace=wrap;html=1;fillColor=#d5e8d4;strokeColor=#82b366;align=left;" vertex="1" parent="1">
          <mxGeometry x="40" y="3030" width="290" height="130" as="geometry" />
        </mxCell>
        <mxCell id="JkesKB-A6FlV3lV3Gz2_-120" value="" style="rounded=0;whiteSpace=wrap;html=1;" vertex="1" parent="1">
          <mxGeometry x="30" y="3200" width="120" height="280" as="geometry" />
        </mxCell>
        <mxCell id="JkesKB-A6FlV3lV3Gz2_-121" value="" style="rounded=0;whiteSpace=wrap;html=1;" vertex="1" parent="1">
          <mxGeometry x="150" y="3200" width="240" height="280" as="geometry" />
        </mxCell>
        <mxCell id="JkesKB-A6FlV3lV3Gz2_-127" style="edgeStyle=orthogonalEdgeStyle;rounded=0;orthogonalLoop=1;jettySize=auto;html=1;" edge="1" parent="1" source="JkesKB-A6FlV3lV3Gz2_-122" target="JkesKB-A6FlV3lV3Gz2_-123">
          <mxGeometry relative="1" as="geometry" />
        </mxCell>
        <mxCell id="JkesKB-A6FlV3lV3Gz2_-122" value="foods" style="rounded=0;whiteSpace=wrap;html=1;" vertex="1" parent="1">
          <mxGeometry x="55" y="3230" width="55" height="20" as="geometry" />
        </mxCell>
        <mxCell id="JkesKB-A6FlV3lV3Gz2_-128" style="edgeStyle=orthogonalEdgeStyle;rounded=0;orthogonalLoop=1;jettySize=auto;html=1;" edge="1" parent="1" source="JkesKB-A6FlV3lV3Gz2_-123" target="JkesKB-A6FlV3lV3Gz2_-124">
          <mxGeometry relative="1" as="geometry" />
        </mxCell>
        <mxCell id="JkesKB-A6FlV3lV3Gz2_-123" value="shawarma" style="rounded=0;whiteSpace=wrap;html=1;fillColor=#f5f5f5;fontColor=#333333;strokeColor=#666666;" vertex="1" parent="1">
          <mxGeometry x="160" y="3230" width="77.5" height="30" as="geometry" />
        </mxCell>
        <mxCell id="JkesKB-A6FlV3lV3Gz2_-129" style="edgeStyle=orthogonalEdgeStyle;rounded=0;orthogonalLoop=1;jettySize=auto;html=1;" edge="1" parent="1" source="JkesKB-A6FlV3lV3Gz2_-124" target="JkesKB-A6FlV3lV3Gz2_-125">
          <mxGeometry relative="1" as="geometry">
            <Array as="points">
              <mxPoint x="326" y="3280" />
              <mxPoint x="211" y="3280" />
            </Array>
          </mxGeometry>
        </mxCell>
        <mxCell id="JkesKB-A6FlV3lV3Gz2_-124" value="sushi" style="rounded=0;whiteSpace=wrap;html=1;fillColor=#f5f5f5;fontColor=#333333;strokeColor=#666666;" vertex="1" parent="1">
          <mxGeometry x="287.5" y="3240" width="77.5" height="30" as="geometry" />
        </mxCell>
        <mxCell id="JkesKB-A6FlV3lV3Gz2_-130" style="edgeStyle=orthogonalEdgeStyle;rounded=0;orthogonalLoop=1;jettySize=auto;html=1;" edge="1" parent="1" source="JkesKB-A6FlV3lV3Gz2_-125" target="JkesKB-A6FlV3lV3Gz2_-126">
          <mxGeometry relative="1" as="geometry" />
        </mxCell>
        <mxCell id="JkesKB-A6FlV3lV3Gz2_-125" value="ramen" style="rounded=0;whiteSpace=wrap;html=1;fillColor=#f5f5f5;fontColor=#333333;strokeColor=#666666;" vertex="1" parent="1">
          <mxGeometry x="172.5" y="3300" width="77.5" height="30" as="geometry" />
        </mxCell>
        <mxCell id="JkesKB-A6FlV3lV3Gz2_-126" value="salad" style="rounded=0;whiteSpace=wrap;html=1;fillColor=#f5f5f5;fontColor=#333333;strokeColor=#666666;" vertex="1" parent="1">
          <mxGeometry x="287.5" y="3310" width="77.5" height="30" as="geometry" />
        </mxCell>
        <mxCell id="JkesKB-A6FlV3lV3Gz2_-131" value="item" style="rounded=0;whiteSpace=wrap;html=1;" vertex="1" parent="1">
          <mxGeometry x="62.5" y="3360" width="55" height="20" as="geometry" />
        </mxCell>
        <mxCell id="JkesKB-A6FlV3lV3Gz2_-132" style="rounded=0;orthogonalLoop=1;jettySize=auto;html=1;entryX=0.173;entryY=0.968;entryDx=0;entryDy=0;entryPerimeter=0;" edge="1" parent="1" source="JkesKB-A6FlV3lV3Gz2_-131" target="JkesKB-A6FlV3lV3Gz2_-124">
          <mxGeometry relative="1" as="geometry" />
        </mxCell>
        <mxCell id="JkesKB-A6FlV3lV3Gz2_-133" value="" style="triangle;whiteSpace=wrap;html=1;" vertex="1" parent="1">
          <mxGeometry x="10" y="3070" width="30" height="10" as="geometry" />
        </mxCell>
        <mxCell id="JkesKB-A6FlV3lV3Gz2_-134" value="item" style="rounded=0;whiteSpace=wrap;html=1;fillColor=#fff2cc;strokeColor=#d6b656;" vertex="1" parent="1">
          <mxGeometry x="343.75" y="2950" width="55" height="20" as="geometry" />
        </mxCell>
        <mxCell id="JkesKB-A6FlV3lV3Gz2_-135" value="&lt;div style=&quot;background-color: rgb(30, 31, 34); color: rgb(188, 190, 196); font-family: &amp;quot;JetBrains Mono&amp;quot;, monospace; white-space: pre;&quot;&gt;&lt;font style=&quot;font-size: 18px;&quot;&gt;points = [(&lt;span style=&quot;color: rgb(42, 172, 184);&quot;&gt;1&lt;/span&gt;, &lt;span style=&quot;color: rgb(42, 172, 184);&quot;&gt;2&lt;/span&gt;), (&lt;span style=&quot;color: rgb(42, 172, 184);&quot;&gt;1&lt;/span&gt;, &lt;span style=&quot;color: rgb(42, 172, 184);&quot;&gt;3&lt;/span&gt;), (&lt;span style=&quot;color: rgb(42, 172, 184);&quot;&gt;2&lt;/span&gt;, &lt;span style=&quot;color: rgb(42, 172, 184);&quot;&gt;5&lt;/span&gt;), (&lt;span style=&quot;color: rgb(42, 172, 184);&quot;&gt;2&lt;/span&gt;, &lt;span style=&quot;color: rgb(42, 172, 184);&quot;&gt;6&lt;/span&gt;), (&lt;span style=&quot;color: rgb(42, 172, 184);&quot;&gt;1&lt;/span&gt;, &lt;span style=&quot;color: rgb(42, 172, 184);&quot;&gt;1&lt;/span&gt;), (&lt;span style=&quot;color: rgb(42, 172, 184);&quot;&gt;3&lt;/span&gt;, &lt;span style=&quot;color: rgb(42, 172, 184);&quot;&gt;4&lt;/span&gt;), (&lt;span style=&quot;color: rgb(42, 172, 184);&quot;&gt;4&lt;/span&gt;, &lt;span style=&quot;color: rgb(42, 172, 184);&quot;&gt;4&lt;/span&gt;)]&lt;span style=&quot;color: rgb(122, 126, 133);&quot;&gt;&lt;br&gt;&lt;/span&gt;&lt;span style=&quot;color: rgb(136, 136, 198);&quot;&gt;print&lt;/span&gt;(points)&lt;br&gt;&lt;span style=&quot;color: rgb(207, 142, 109);&quot;&gt;for &lt;/span&gt;i &lt;span style=&quot;color: rgb(207, 142, 109);&quot;&gt;in &lt;/span&gt;&lt;span style=&quot;color: rgb(136, 136, 198);&quot;&gt;range&lt;/span&gt;(&lt;span style=&quot;color: rgb(136, 136, 198);&quot;&gt;len&lt;/span&gt;(points)):&lt;br&gt;&lt;span style=&quot;color: rgb(122, 126, 133);&quot;&gt;    &lt;/span&gt;&lt;span style=&quot;color: rgb(207, 142, 109);&quot;&gt;for &lt;/span&gt;j &lt;span style=&quot;color: rgb(207, 142, 109);&quot;&gt;in &lt;/span&gt;&lt;span style=&quot;color: rgb(136, 136, 198);&quot;&gt;range&lt;/span&gt;(&lt;span style=&quot;color: rgb(42, 172, 184);&quot;&gt;0&lt;/span&gt;, &lt;span style=&quot;color: rgb(136, 136, 198);&quot;&gt;len&lt;/span&gt;(points) - i - &lt;span style=&quot;color: rgb(42, 172, 184);&quot;&gt;1&lt;/span&gt;):&lt;br&gt;        &lt;span style=&quot;color: rgb(136, 136, 198);&quot;&gt;print&lt;/span&gt;(points[j][&lt;span style=&quot;color: rgb(42, 172, 184);&quot;&gt;1&lt;/span&gt;], &lt;span style=&quot;color: rgb(106, 171, 115);&quot;&gt;&#39;----&#39;&lt;/span&gt;, points[j+&lt;span style=&quot;color: rgb(42, 172, 184);&quot;&gt;1&lt;/span&gt;][&lt;span style=&quot;color: rgb(42, 172, 184);&quot;&gt;1&lt;/span&gt;])&lt;/font&gt;&lt;/div&gt;" style="text;whiteSpace=wrap;html=1;" vertex="1" parent="1">
          <mxGeometry x="30" y="3510" width="560" height="120" as="geometry" />
        </mxCell>
        <mxCell id="JkesKB-A6FlV3lV3Gz2_-137" value="" style="shape=table;startSize=0;container=1;collapsible=0;childLayout=tableLayout;fontSize=16;" vertex="1" parent="1">
          <mxGeometry x="75" y="3700" width="225" height="130" as="geometry" />
        </mxCell>
        <mxCell id="JkesKB-A6FlV3lV3Gz2_-138" value="" style="shape=tableRow;horizontal=0;startSize=0;swimlaneHead=0;swimlaneBody=0;strokeColor=inherit;top=0;left=0;bottom=0;right=0;collapsible=0;dropTarget=0;fillColor=none;points=[[0,0.5],[1,0.5]];portConstraint=eastwest;fontSize=16;" vertex="1" parent="JkesKB-A6FlV3lV3Gz2_-137">
          <mxGeometry width="225" height="40" as="geometry" />
        </mxCell>
        <mxCell id="JkesKB-A6FlV3lV3Gz2_-139" value="i" style="shape=partialRectangle;html=1;whiteSpace=wrap;connectable=0;strokeColor=inherit;overflow=hidden;fillColor=none;top=0;left=0;bottom=0;right=0;pointerEvents=1;fontSize=16;" vertex="1" parent="JkesKB-A6FlV3lV3Gz2_-138">
          <mxGeometry width="75" height="40" as="geometry">
            <mxRectangle width="75" height="40" as="alternateBounds" />
          </mxGeometry>
        </mxCell>
        <mxCell id="JkesKB-A6FlV3lV3Gz2_-140" value="j" style="shape=partialRectangle;html=1;whiteSpace=wrap;connectable=0;strokeColor=inherit;overflow=hidden;fillColor=none;top=0;left=0;bottom=0;right=0;pointerEvents=1;fontSize=16;" vertex="1" parent="JkesKB-A6FlV3lV3Gz2_-138">
          <mxGeometry x="75" width="75" height="40" as="geometry">
            <mxRectangle width="75" height="40" as="alternateBounds" />
          </mxGeometry>
        </mxCell>
        <mxCell id="JkesKB-A6FlV3lV3Gz2_-141" value="len(point)" style="shape=partialRectangle;html=1;whiteSpace=wrap;connectable=0;strokeColor=inherit;overflow=hidden;fillColor=none;top=0;left=0;bottom=0;right=0;pointerEvents=1;fontSize=16;" vertex="1" parent="JkesKB-A6FlV3lV3Gz2_-138">
          <mxGeometry x="150" width="75" height="40" as="geometry">
            <mxRectangle width="75" height="40" as="alternateBounds" />
          </mxGeometry>
        </mxCell>
        <mxCell id="JkesKB-A6FlV3lV3Gz2_-142" value="" style="shape=tableRow;horizontal=0;startSize=0;swimlaneHead=0;swimlaneBody=0;strokeColor=inherit;top=0;left=0;bottom=0;right=0;collapsible=0;dropTarget=0;fillColor=none;points=[[0,0.5],[1,0.5]];portConstraint=eastwest;fontSize=16;" vertex="1" parent="JkesKB-A6FlV3lV3Gz2_-137">
          <mxGeometry y="40" width="225" height="50" as="geometry" />
        </mxCell>
        <mxCell id="JkesKB-A6FlV3lV3Gz2_-143" value="" style="shape=partialRectangle;html=1;whiteSpace=wrap;connectable=0;strokeColor=inherit;overflow=hidden;fillColor=none;top=0;left=0;bottom=0;right=0;pointerEvents=1;fontSize=16;" vertex="1" parent="JkesKB-A6FlV3lV3Gz2_-142">
          <mxGeometry width="75" height="50" as="geometry">
            <mxRectangle width="75" height="50" as="alternateBounds" />
          </mxGeometry>
        </mxCell>
        <mxCell id="JkesKB-A6FlV3lV3Gz2_-144" value="" style="shape=partialRectangle;html=1;whiteSpace=wrap;connectable=0;strokeColor=inherit;overflow=hidden;fillColor=none;top=0;left=0;bottom=0;right=0;pointerEvents=1;fontSize=16;" vertex="1" parent="JkesKB-A6FlV3lV3Gz2_-142">
          <mxGeometry x="75" width="75" height="50" as="geometry">
            <mxRectangle width="75" height="50" as="alternateBounds" />
          </mxGeometry>
        </mxCell>
        <mxCell id="JkesKB-A6FlV3lV3Gz2_-145" value="7" style="shape=partialRectangle;html=1;whiteSpace=wrap;connectable=0;strokeColor=inherit;overflow=hidden;fillColor=none;top=0;left=0;bottom=0;right=0;pointerEvents=1;fontSize=16;" vertex="1" parent="JkesKB-A6FlV3lV3Gz2_-142">
          <mxGeometry x="150" width="75" height="50" as="geometry">
            <mxRectangle width="75" height="50" as="alternateBounds" />
          </mxGeometry>
        </mxCell>
        <mxCell id="JkesKB-A6FlV3lV3Gz2_-146" value="" style="shape=tableRow;horizontal=0;startSize=0;swimlaneHead=0;swimlaneBody=0;strokeColor=inherit;top=0;left=0;bottom=0;right=0;collapsible=0;dropTarget=0;fillColor=none;points=[[0,0.5],[1,0.5]];portConstraint=eastwest;fontSize=16;" vertex="1" parent="JkesKB-A6FlV3lV3Gz2_-137">
          <mxGeometry y="90" width="225" height="40" as="geometry" />
        </mxCell>
        <mxCell id="JkesKB-A6FlV3lV3Gz2_-147" value="0" style="shape=partialRectangle;html=1;whiteSpace=wrap;connectable=0;strokeColor=inherit;overflow=hidden;fillColor=none;top=0;left=0;bottom=0;right=0;pointerEvents=1;fontSize=16;" vertex="1" parent="JkesKB-A6FlV3lV3Gz2_-146">
          <mxGeometry width="75" height="40" as="geometry">
            <mxRectangle width="75" height="40" as="alternateBounds" />
          </mxGeometry>
        </mxCell>
        <mxCell id="JkesKB-A6FlV3lV3Gz2_-148" value="0" style="shape=partialRectangle;html=1;whiteSpace=wrap;connectable=0;strokeColor=inherit;overflow=hidden;fillColor=none;top=0;left=0;bottom=0;right=0;pointerEvents=1;fontSize=16;" vertex="1" parent="JkesKB-A6FlV3lV3Gz2_-146">
          <mxGeometry x="75" width="75" height="40" as="geometry">
            <mxRectangle width="75" height="40" as="alternateBounds" />
          </mxGeometry>
        </mxCell>
        <mxCell id="JkesKB-A6FlV3lV3Gz2_-149" value="" style="shape=partialRectangle;html=1;whiteSpace=wrap;connectable=0;strokeColor=inherit;overflow=hidden;fillColor=none;top=0;left=0;bottom=0;right=0;pointerEvents=1;fontSize=16;" vertex="1" parent="JkesKB-A6FlV3lV3Gz2_-146">
          <mxGeometry x="150" width="75" height="40" as="geometry">
            <mxRectangle width="75" height="40" as="alternateBounds" />
          </mxGeometry>
        </mxCell>
        <mxCell id="JkesKB-A6FlV3lV3Gz2_-150" value="" style="shape=table;startSize=0;container=1;collapsible=0;childLayout=tableLayout;fontSize=16;" vertex="1" parent="1">
          <mxGeometry x="300" y="3700" width="380" height="130" as="geometry" />
        </mxCell>
        <mxCell id="JkesKB-A6FlV3lV3Gz2_-151" value="" style="shape=tableRow;horizontal=0;startSize=0;swimlaneHead=0;swimlaneBody=0;strokeColor=inherit;top=0;left=0;bottom=0;right=0;collapsible=0;dropTarget=0;fillColor=none;points=[[0,0.5],[1,0.5]];portConstraint=eastwest;fontSize=16;" vertex="1" parent="JkesKB-A6FlV3lV3Gz2_-150">
          <mxGeometry width="380" height="40" as="geometry" />
        </mxCell>
        <mxCell id="JkesKB-A6FlV3lV3Gz2_-152" value="points[j][1]" style="shape=partialRectangle;html=1;whiteSpace=wrap;connectable=0;strokeColor=inherit;overflow=hidden;fillColor=none;top=0;left=0;bottom=0;right=0;pointerEvents=1;fontSize=16;" vertex="1" parent="JkesKB-A6FlV3lV3Gz2_-151">
          <mxGeometry width="130" height="40" as="geometry">
            <mxRectangle width="130" height="40" as="alternateBounds" />
          </mxGeometry>
        </mxCell>
        <mxCell id="JkesKB-A6FlV3lV3Gz2_-153" value="points[j+1][1]" style="shape=partialRectangle;html=1;whiteSpace=wrap;connectable=0;strokeColor=inherit;overflow=hidden;fillColor=none;top=0;left=0;bottom=0;right=0;pointerEvents=1;fontSize=16;" vertex="1" parent="JkesKB-A6FlV3lV3Gz2_-151">
          <mxGeometry x="130" width="110" height="40" as="geometry">
            <mxRectangle width="110" height="40" as="alternateBounds" />
          </mxGeometry>
        </mxCell>
        <mxCell id="JkesKB-A6FlV3lV3Gz2_-154" value="len(points)-i-1" style="shape=partialRectangle;html=1;whiteSpace=wrap;connectable=0;strokeColor=inherit;overflow=hidden;fillColor=none;top=0;left=0;bottom=0;right=0;pointerEvents=1;fontSize=16;" vertex="1" parent="JkesKB-A6FlV3lV3Gz2_-151">
          <mxGeometry x="240" width="140" height="40" as="geometry">
            <mxRectangle width="140" height="40" as="alternateBounds" />
          </mxGeometry>
        </mxCell>
        <mxCell id="JkesKB-A6FlV3lV3Gz2_-155" value="" style="shape=tableRow;horizontal=0;startSize=0;swimlaneHead=0;swimlaneBody=0;strokeColor=inherit;top=0;left=0;bottom=0;right=0;collapsible=0;dropTarget=0;fillColor=none;points=[[0,0.5],[1,0.5]];portConstraint=eastwest;fontSize=16;" vertex="1" parent="JkesKB-A6FlV3lV3Gz2_-150">
          <mxGeometry y="40" width="380" height="50" as="geometry" />
        </mxCell>
        <mxCell id="JkesKB-A6FlV3lV3Gz2_-156" value="" style="shape=partialRectangle;html=1;whiteSpace=wrap;connectable=0;strokeColor=inherit;overflow=hidden;fillColor=none;top=0;left=0;bottom=0;right=0;pointerEvents=1;fontSize=16;" vertex="1" parent="JkesKB-A6FlV3lV3Gz2_-155">
          <mxGeometry width="130" height="50" as="geometry">
            <mxRectangle width="130" height="50" as="alternateBounds" />
          </mxGeometry>
        </mxCell>
        <mxCell id="JkesKB-A6FlV3lV3Gz2_-157" value="" style="shape=partialRectangle;html=1;whiteSpace=wrap;connectable=0;strokeColor=inherit;overflow=hidden;fillColor=none;top=0;left=0;bottom=0;right=0;pointerEvents=1;fontSize=16;" vertex="1" parent="JkesKB-A6FlV3lV3Gz2_-155">
          <mxGeometry x="130" width="110" height="50" as="geometry">
            <mxRectangle width="110" height="50" as="alternateBounds" />
          </mxGeometry>
        </mxCell>
        <mxCell id="JkesKB-A6FlV3lV3Gz2_-158" value="7-0-1=6" style="shape=partialRectangle;html=1;whiteSpace=wrap;connectable=0;strokeColor=inherit;overflow=hidden;fillColor=none;top=0;left=0;bottom=0;right=0;pointerEvents=1;fontSize=16;" vertex="1" parent="JkesKB-A6FlV3lV3Gz2_-155">
          <mxGeometry x="240" width="140" height="50" as="geometry">
            <mxRectangle width="140" height="50" as="alternateBounds" />
          </mxGeometry>
        </mxCell>
        <mxCell id="JkesKB-A6FlV3lV3Gz2_-159" value="" style="shape=tableRow;horizontal=0;startSize=0;swimlaneHead=0;swimlaneBody=0;strokeColor=inherit;top=0;left=0;bottom=0;right=0;collapsible=0;dropTarget=0;fillColor=none;points=[[0,0.5],[1,0.5]];portConstraint=eastwest;fontSize=16;" vertex="1" parent="JkesKB-A6FlV3lV3Gz2_-150">
          <mxGeometry y="90" width="380" height="40" as="geometry" />
        </mxCell>
        <mxCell id="JkesKB-A6FlV3lV3Gz2_-160" value="points[0][1] =2" style="shape=partialRectangle;html=1;whiteSpace=wrap;connectable=0;strokeColor=inherit;overflow=hidden;fillColor=none;top=0;left=0;bottom=0;right=0;pointerEvents=1;fontSize=16;" vertex="1" parent="JkesKB-A6FlV3lV3Gz2_-159">
          <mxGeometry width="130" height="40" as="geometry">
            <mxRectangle width="130" height="40" as="alternateBounds" />
          </mxGeometry>
        </mxCell>
        <mxCell id="JkesKB-A6FlV3lV3Gz2_-161" value="points[1][1] =3" style="shape=partialRectangle;html=1;whiteSpace=wrap;connectable=0;strokeColor=inherit;overflow=hidden;fillColor=none;top=0;left=0;bottom=0;right=0;pointerEvents=1;fontSize=16;" vertex="1" parent="JkesKB-A6FlV3lV3Gz2_-159">
          <mxGeometry x="130" width="110" height="40" as="geometry">
            <mxRectangle width="110" height="40" as="alternateBounds" />
          </mxGeometry>
        </mxCell>
        <mxCell id="JkesKB-A6FlV3lV3Gz2_-162" value="" style="shape=partialRectangle;html=1;whiteSpace=wrap;connectable=0;strokeColor=inherit;overflow=hidden;fillColor=none;top=0;left=0;bottom=0;right=0;pointerEvents=1;fontSize=16;" vertex="1" parent="JkesKB-A6FlV3lV3Gz2_-159">
          <mxGeometry x="240" width="140" height="40" as="geometry">
            <mxRectangle width="140" height="40" as="alternateBounds" />
          </mxGeometry>
        </mxCell>
        <mxCell id="JkesKB-A6FlV3lV3Gz2_-163" value="" style="shape=table;startSize=0;container=1;collapsible=0;childLayout=tableLayout;fontSize=16;" vertex="1" parent="1">
          <mxGeometry x="75" y="3830" width="225" height="130" as="geometry" />
        </mxCell>
        <mxCell id="JkesKB-A6FlV3lV3Gz2_-164" value="" style="shape=tableRow;horizontal=0;startSize=0;swimlaneHead=0;swimlaneBody=0;strokeColor=inherit;top=0;left=0;bottom=0;right=0;collapsible=0;dropTarget=0;fillColor=none;points=[[0,0.5],[1,0.5]];portConstraint=eastwest;fontSize=16;" vertex="1" parent="JkesKB-A6FlV3lV3Gz2_-163">
          <mxGeometry width="225" height="40" as="geometry" />
        </mxCell>
        <mxCell id="JkesKB-A6FlV3lV3Gz2_-165" value="" style="shape=partialRectangle;html=1;whiteSpace=wrap;connectable=0;strokeColor=inherit;overflow=hidden;fillColor=none;top=0;left=0;bottom=0;right=0;pointerEvents=1;fontSize=16;" vertex="1" parent="JkesKB-A6FlV3lV3Gz2_-164">
          <mxGeometry width="75" height="40" as="geometry">
            <mxRectangle width="75" height="40" as="alternateBounds" />
          </mxGeometry>
        </mxCell>
        <mxCell id="JkesKB-A6FlV3lV3Gz2_-166" value="1" style="shape=partialRectangle;html=1;whiteSpace=wrap;connectable=0;strokeColor=inherit;overflow=hidden;fillColor=none;top=0;left=0;bottom=0;right=0;pointerEvents=1;fontSize=16;" vertex="1" parent="JkesKB-A6FlV3lV3Gz2_-164">
          <mxGeometry x="75" width="75" height="40" as="geometry">
            <mxRectangle width="75" height="40" as="alternateBounds" />
          </mxGeometry>
        </mxCell>
        <mxCell id="JkesKB-A6FlV3lV3Gz2_-167" value="" style="shape=partialRectangle;html=1;whiteSpace=wrap;connectable=0;strokeColor=inherit;overflow=hidden;fillColor=none;top=0;left=0;bottom=0;right=0;pointerEvents=1;fontSize=16;" vertex="1" parent="JkesKB-A6FlV3lV3Gz2_-164">
          <mxGeometry x="150" width="75" height="40" as="geometry">
            <mxRectangle width="75" height="40" as="alternateBounds" />
          </mxGeometry>
        </mxCell>
        <mxCell id="JkesKB-A6FlV3lV3Gz2_-168" value="" style="shape=tableRow;horizontal=0;startSize=0;swimlaneHead=0;swimlaneBody=0;strokeColor=inherit;top=0;left=0;bottom=0;right=0;collapsible=0;dropTarget=0;fillColor=none;points=[[0,0.5],[1,0.5]];portConstraint=eastwest;fontSize=16;" vertex="1" parent="JkesKB-A6FlV3lV3Gz2_-163">
          <mxGeometry y="40" width="225" height="50" as="geometry" />
        </mxCell>
        <mxCell id="JkesKB-A6FlV3lV3Gz2_-169" value="" style="shape=partialRectangle;html=1;whiteSpace=wrap;connectable=0;strokeColor=inherit;overflow=hidden;fillColor=none;top=0;left=0;bottom=0;right=0;pointerEvents=1;fontSize=16;" vertex="1" parent="JkesKB-A6FlV3lV3Gz2_-168">
          <mxGeometry width="75" height="50" as="geometry">
            <mxRectangle width="75" height="50" as="alternateBounds" />
          </mxGeometry>
        </mxCell>
        <mxCell id="JkesKB-A6FlV3lV3Gz2_-170" value="2" style="shape=partialRectangle;html=1;whiteSpace=wrap;connectable=0;strokeColor=inherit;overflow=hidden;fillColor=none;top=0;left=0;bottom=0;right=0;pointerEvents=1;fontSize=16;" vertex="1" parent="JkesKB-A6FlV3lV3Gz2_-168">
          <mxGeometry x="75" width="75" height="50" as="geometry">
            <mxRectangle width="75" height="50" as="alternateBounds" />
          </mxGeometry>
        </mxCell>
        <mxCell id="JkesKB-A6FlV3lV3Gz2_-171" value="" style="shape=partialRectangle;html=1;whiteSpace=wrap;connectable=0;strokeColor=inherit;overflow=hidden;fillColor=none;top=0;left=0;bottom=0;right=0;pointerEvents=1;fontSize=16;" vertex="1" parent="JkesKB-A6FlV3lV3Gz2_-168">
          <mxGeometry x="150" width="75" height="50" as="geometry">
            <mxRectangle width="75" height="50" as="alternateBounds" />
          </mxGeometry>
        </mxCell>
        <mxCell id="JkesKB-A6FlV3lV3Gz2_-172" value="" style="shape=tableRow;horizontal=0;startSize=0;swimlaneHead=0;swimlaneBody=0;strokeColor=inherit;top=0;left=0;bottom=0;right=0;collapsible=0;dropTarget=0;fillColor=none;points=[[0,0.5],[1,0.5]];portConstraint=eastwest;fontSize=16;" vertex="1" parent="JkesKB-A6FlV3lV3Gz2_-163">
          <mxGeometry y="90" width="225" height="40" as="geometry" />
        </mxCell>
        <mxCell id="JkesKB-A6FlV3lV3Gz2_-173" value="" style="shape=partialRectangle;html=1;whiteSpace=wrap;connectable=0;strokeColor=inherit;overflow=hidden;fillColor=none;top=0;left=0;bottom=0;right=0;pointerEvents=1;fontSize=16;" vertex="1" parent="JkesKB-A6FlV3lV3Gz2_-172">
          <mxGeometry width="75" height="40" as="geometry">
            <mxRectangle width="75" height="40" as="alternateBounds" />
          </mxGeometry>
        </mxCell>
        <mxCell id="JkesKB-A6FlV3lV3Gz2_-174" value="5" style="shape=partialRectangle;html=1;whiteSpace=wrap;connectable=0;strokeColor=inherit;overflow=hidden;fillColor=none;top=0;left=0;bottom=0;right=0;pointerEvents=1;fontSize=16;" vertex="1" parent="JkesKB-A6FlV3lV3Gz2_-172">
          <mxGeometry x="75" width="75" height="40" as="geometry">
            <mxRectangle width="75" height="40" as="alternateBounds" />
          </mxGeometry>
        </mxCell>
        <mxCell id="JkesKB-A6FlV3lV3Gz2_-175" value="" style="shape=partialRectangle;html=1;whiteSpace=wrap;connectable=0;strokeColor=inherit;overflow=hidden;fillColor=none;top=0;left=0;bottom=0;right=0;pointerEvents=1;fontSize=16;" vertex="1" parent="JkesKB-A6FlV3lV3Gz2_-172">
          <mxGeometry x="150" width="75" height="40" as="geometry">
            <mxRectangle width="75" height="40" as="alternateBounds" />
          </mxGeometry>
        </mxCell>
        <mxCell id="JkesKB-A6FlV3lV3Gz2_-176" value="" style="shape=table;startSize=0;container=1;collapsible=0;childLayout=tableLayout;fontSize=16;" vertex="1" parent="1">
          <mxGeometry x="300" y="3830" width="380" height="130" as="geometry" />
        </mxCell>
        <mxCell id="JkesKB-A6FlV3lV3Gz2_-177" value="" style="shape=tableRow;horizontal=0;startSize=0;swimlaneHead=0;swimlaneBody=0;strokeColor=inherit;top=0;left=0;bottom=0;right=0;collapsible=0;dropTarget=0;fillColor=none;points=[[0,0.5],[1,0.5]];portConstraint=eastwest;fontSize=16;" vertex="1" parent="JkesKB-A6FlV3lV3Gz2_-176">
          <mxGeometry width="380" height="40" as="geometry" />
        </mxCell>
        <mxCell id="JkesKB-A6FlV3lV3Gz2_-178" value="&lt;meta charset=&quot;utf-8&quot;&gt;&lt;span style=&quot;color: rgb(0, 0, 0); font-family: Helvetica; font-size: 16px; font-style: normal; font-variant-ligatures: normal; font-variant-caps: normal; font-weight: 400; letter-spacing: normal; orphans: 2; text-align: center; text-indent: 0px; text-transform: none; widows: 2; word-spacing: 0px; -webkit-text-stroke-width: 0px; white-space: normal; background-color: rgb(251, 251, 251); text-decoration-thickness: initial; text-decoration-style: initial; text-decoration-color: initial; display: inline !important; float: none;&quot;&gt;points[1][1] =3&lt;/span&gt;" style="shape=partialRectangle;html=1;whiteSpace=wrap;connectable=0;strokeColor=inherit;overflow=hidden;fillColor=none;top=0;left=0;bottom=0;right=0;pointerEvents=1;fontSize=16;" vertex="1" parent="JkesKB-A6FlV3lV3Gz2_-177">
          <mxGeometry width="130" height="40" as="geometry">
            <mxRectangle width="130" height="40" as="alternateBounds" />
          </mxGeometry>
        </mxCell>
        <mxCell id="JkesKB-A6FlV3lV3Gz2_-179" value="points[2][1] =5" style="shape=partialRectangle;html=1;whiteSpace=wrap;connectable=0;strokeColor=inherit;overflow=hidden;fillColor=none;top=0;left=0;bottom=0;right=0;pointerEvents=1;fontSize=16;" vertex="1" parent="JkesKB-A6FlV3lV3Gz2_-177">
          <mxGeometry x="130" width="110" height="40" as="geometry">
            <mxRectangle width="110" height="40" as="alternateBounds" />
          </mxGeometry>
        </mxCell>
        <mxCell id="JkesKB-A6FlV3lV3Gz2_-180" value="" style="shape=partialRectangle;html=1;whiteSpace=wrap;connectable=0;strokeColor=inherit;overflow=hidden;fillColor=none;top=0;left=0;bottom=0;right=0;pointerEvents=1;fontSize=16;" vertex="1" parent="JkesKB-A6FlV3lV3Gz2_-177">
          <mxGeometry x="240" width="140" height="40" as="geometry">
            <mxRectangle width="140" height="40" as="alternateBounds" />
          </mxGeometry>
        </mxCell>
        <mxCell id="JkesKB-A6FlV3lV3Gz2_-181" value="" style="shape=tableRow;horizontal=0;startSize=0;swimlaneHead=0;swimlaneBody=0;strokeColor=inherit;top=0;left=0;bottom=0;right=0;collapsible=0;dropTarget=0;fillColor=none;points=[[0,0.5],[1,0.5]];portConstraint=eastwest;fontSize=16;" vertex="1" parent="JkesKB-A6FlV3lV3Gz2_-176">
          <mxGeometry y="40" width="380" height="50" as="geometry" />
        </mxCell>
        <mxCell id="JkesKB-A6FlV3lV3Gz2_-182" value="" style="shape=partialRectangle;html=1;whiteSpace=wrap;connectable=0;strokeColor=inherit;overflow=hidden;fillColor=none;top=0;left=0;bottom=0;right=0;pointerEvents=1;fontSize=16;" vertex="1" parent="JkesKB-A6FlV3lV3Gz2_-181">
          <mxGeometry width="130" height="50" as="geometry">
            <mxRectangle width="130" height="50" as="alternateBounds" />
          </mxGeometry>
        </mxCell>
        <mxCell id="JkesKB-A6FlV3lV3Gz2_-183" value="" style="shape=partialRectangle;html=1;whiteSpace=wrap;connectable=0;strokeColor=inherit;overflow=hidden;fillColor=none;top=0;left=0;bottom=0;right=0;pointerEvents=1;fontSize=16;" vertex="1" parent="JkesKB-A6FlV3lV3Gz2_-181">
          <mxGeometry x="130" width="110" height="50" as="geometry">
            <mxRectangle width="110" height="50" as="alternateBounds" />
          </mxGeometry>
        </mxCell>
        <mxCell id="JkesKB-A6FlV3lV3Gz2_-184" value="" style="shape=partialRectangle;html=1;whiteSpace=wrap;connectable=0;strokeColor=inherit;overflow=hidden;fillColor=none;top=0;left=0;bottom=0;right=0;pointerEvents=1;fontSize=16;" vertex="1" parent="JkesKB-A6FlV3lV3Gz2_-181">
          <mxGeometry x="240" width="140" height="50" as="geometry">
            <mxRectangle width="140" height="50" as="alternateBounds" />
          </mxGeometry>
        </mxCell>
        <mxCell id="JkesKB-A6FlV3lV3Gz2_-185" value="" style="shape=tableRow;horizontal=0;startSize=0;swimlaneHead=0;swimlaneBody=0;strokeColor=inherit;top=0;left=0;bottom=0;right=0;collapsible=0;dropTarget=0;fillColor=none;points=[[0,0.5],[1,0.5]];portConstraint=eastwest;fontSize=16;" vertex="1" parent="JkesKB-A6FlV3lV3Gz2_-176">
          <mxGeometry y="90" width="380" height="40" as="geometry" />
        </mxCell>
        <mxCell id="JkesKB-A6FlV3lV3Gz2_-186" value="points[5][1] =4" style="shape=partialRectangle;html=1;whiteSpace=wrap;connectable=0;strokeColor=inherit;overflow=hidden;fillColor=none;top=0;left=0;bottom=0;right=0;pointerEvents=1;fontSize=16;" vertex="1" parent="JkesKB-A6FlV3lV3Gz2_-185">
          <mxGeometry width="130" height="40" as="geometry">
            <mxRectangle width="130" height="40" as="alternateBounds" />
          </mxGeometry>
        </mxCell>
        <mxCell id="JkesKB-A6FlV3lV3Gz2_-187" value="points[6][1] =4" style="shape=partialRectangle;html=1;whiteSpace=wrap;connectable=0;strokeColor=inherit;overflow=hidden;fillColor=none;top=0;left=0;bottom=0;right=0;pointerEvents=1;fontSize=16;" vertex="1" parent="JkesKB-A6FlV3lV3Gz2_-185">
          <mxGeometry x="130" width="110" height="40" as="geometry">
            <mxRectangle width="110" height="40" as="alternateBounds" />
          </mxGeometry>
        </mxCell>
        <mxCell id="JkesKB-A6FlV3lV3Gz2_-188" value="" style="shape=partialRectangle;html=1;whiteSpace=wrap;connectable=0;strokeColor=inherit;overflow=hidden;fillColor=none;top=0;left=0;bottom=0;right=0;pointerEvents=1;fontSize=16;" vertex="1" parent="JkesKB-A6FlV3lV3Gz2_-185">
          <mxGeometry x="240" width="140" height="40" as="geometry">
            <mxRectangle width="140" height="40" as="alternateBounds" />
          </mxGeometry>
        </mxCell>
        <mxCell id="JkesKB-A6FlV3lV3Gz2_-202" value="while" style="rounded=0;whiteSpace=wrap;html=1;" vertex="1" parent="1">
          <mxGeometry x="370" y="4550" width="120" height="60" as="geometry" />
        </mxCell>
        <mxCell id="JkesKB-A6FlV3lV3Gz2_-206" style="edgeStyle=orthogonalEdgeStyle;rounded=0;orthogonalLoop=1;jettySize=auto;html=1;" edge="1" parent="1" source="JkesKB-A6FlV3lV3Gz2_-204">
          <mxGeometry relative="1" as="geometry">
            <mxPoint x="230" y="4940" as="targetPoint" />
            <Array as="points">
              <mxPoint x="80" y="4940" />
            </Array>
          </mxGeometry>
        </mxCell>
        <mxCell id="JkesKB-A6FlV3lV3Gz2_-204" value="while condition:&amp;nbsp;" style="rounded=1;whiteSpace=wrap;html=1;arcSize=50;fillColor=#d5e8d4;strokeColor=#82b366;" vertex="1" parent="1">
          <mxGeometry x="65" y="4620" width="120" height="60" as="geometry" />
        </mxCell>
        <mxCell id="JkesKB-A6FlV3lV3Gz2_-205" value="loop code" style="rounded=1;whiteSpace=wrap;html=1;arcSize=30;fillColor=#d5e8d4;strokeColor=#82b366;" vertex="1" parent="1">
          <mxGeometry x="115" y="4690" width="120" height="190" as="geometry" />
        </mxCell>
        <mxCell id="JkesKB-A6FlV3lV3Gz2_-207" value="dict" style="rounded=1;whiteSpace=wrap;html=1;fillColor=#f8cecc;strokeColor=#b85450;" vertex="1" parent="1">
          <mxGeometry x="365" y="5530" width="120" height="60" as="geometry" />
        </mxCell>
        <mxCell id="JkesKB-A6FlV3lV3Gz2_-210" style="edgeStyle=orthogonalEdgeStyle;rounded=0;orthogonalLoop=1;jettySize=auto;html=1;" edge="1" parent="1" source="JkesKB-A6FlV3lV3Gz2_-208" target="JkesKB-A6FlV3lV3Gz2_-209">
          <mxGeometry relative="1" as="geometry">
            <Array as="points">
              <mxPoint x="390" y="5730" />
              <mxPoint x="390" y="5730" />
            </Array>
          </mxGeometry>
        </mxCell>
        <mxCell id="JkesKB-A6FlV3lV3Gz2_-212" value="xml&lt;br&gt;json" style="edgeLabel;html=1;align=center;verticalAlign=middle;resizable=0;points=[];" vertex="1" connectable="0" parent="JkesKB-A6FlV3lV3Gz2_-210">
          <mxGeometry x="0.0199" y="-2" relative="1" as="geometry">
            <mxPoint as="offset" />
          </mxGeometry>
        </mxCell>
        <mxCell id="JkesKB-A6FlV3lV3Gz2_-208" value="frontend" style="rounded=0;whiteSpace=wrap;html=1;" vertex="1" parent="1">
          <mxGeometry x="150" y="5700" width="150" height="170" as="geometry" />
        </mxCell>
        <mxCell id="JkesKB-A6FlV3lV3Gz2_-211" style="edgeStyle=orthogonalEdgeStyle;rounded=0;orthogonalLoop=1;jettySize=auto;html=1;" edge="1" parent="1" source="JkesKB-A6FlV3lV3Gz2_-209" target="JkesKB-A6FlV3lV3Gz2_-208">
          <mxGeometry relative="1" as="geometry">
            <Array as="points">
              <mxPoint x="430" y="5840" />
              <mxPoint x="430" y="5840" />
            </Array>
          </mxGeometry>
        </mxCell>
        <mxCell id="JkesKB-A6FlV3lV3Gz2_-209" value="backend" style="rounded=0;whiteSpace=wrap;html=1;" vertex="1" parent="1">
          <mxGeometry x="550" y="5700" width="150" height="170" as="geometry" />
        </mxCell>
        <mxCell id="JkesKB-A6FlV3lV3Gz2_-213" value="list" style="rounded=0;whiteSpace=wrap;html=1;" vertex="1" parent="1">
          <mxGeometry x="25" y="5970" width="120" height="60" as="geometry" />
        </mxCell>
        <mxCell id="JkesKB-A6FlV3lV3Gz2_-214" value="hodi" style="rounded=0;whiteSpace=wrap;html=1;" vertex="1" parent="1">
          <mxGeometry x="150" y="6020" width="120" height="60" as="geometry" />
        </mxCell>
        <mxCell id="JkesKB-A6FlV3lV3Gz2_-215" value="10000" style="rounded=0;whiteSpace=wrap;html=1;" vertex="1" parent="1">
          <mxGeometry x="270" y="6020" width="120" height="60" as="geometry" />
        </mxCell>
        <mxCell id="JkesKB-A6FlV3lV3Gz2_-216" value="mazda" style="rounded=0;whiteSpace=wrap;html=1;" vertex="1" parent="1">
          <mxGeometry x="390" y="6020" width="120" height="60" as="geometry" />
        </mxCell>
        <mxCell id="JkesKB-A6FlV3lV3Gz2_-217" value="0" style="rhombus;whiteSpace=wrap;html=1;" vertex="1" parent="1">
          <mxGeometry x="187.5" y="5975" width="50" height="50" as="geometry" />
        </mxCell>
        <mxCell id="JkesKB-A6FlV3lV3Gz2_-218" value="1" style="rhombus;whiteSpace=wrap;html=1;" vertex="1" parent="1">
          <mxGeometry x="310" y="5975" width="50" height="50" as="geometry" />
        </mxCell>
        <mxCell id="JkesKB-A6FlV3lV3Gz2_-219" value="2" style="rhombus;whiteSpace=wrap;html=1;" vertex="1" parent="1">
          <mxGeometry x="425" y="5975" width="50" height="50" as="geometry" />
        </mxCell>
        <mxCell id="JkesKB-A6FlV3lV3Gz2_-220" value="dict" style="rounded=0;whiteSpace=wrap;html=1;" vertex="1" parent="1">
          <mxGeometry x="25" y="6120" width="120" height="60" as="geometry" />
        </mxCell>
        <mxCell id="JkesKB-A6FlV3lV3Gz2_-221" value="hodi" style="rounded=0;whiteSpace=wrap;html=1;" vertex="1" parent="1">
          <mxGeometry x="150" y="6170" width="120" height="60" as="geometry" />
        </mxCell>
        <mxCell id="JkesKB-A6FlV3lV3Gz2_-222" value="1000" style="rounded=0;whiteSpace=wrap;html=1;" vertex="1" parent="1">
          <mxGeometry x="270" y="6170" width="120" height="60" as="geometry" />
        </mxCell>
        <mxCell id="JkesKB-A6FlV3lV3Gz2_-223" value="mazda" style="rounded=0;whiteSpace=wrap;html=1;" vertex="1" parent="1">
          <mxGeometry x="390" y="6170" width="120" height="60" as="geometry" />
        </mxCell>
        <mxCell id="JkesKB-A6FlV3lV3Gz2_-224" value="name" style="rhombus;whiteSpace=wrap;html=1;" vertex="1" parent="1">
          <mxGeometry x="187.5" y="6125" width="50" height="50" as="geometry" />
        </mxCell>
        <mxCell id="JkesKB-A6FlV3lV3Gz2_-225" value="salary" style="rhombus;whiteSpace=wrap;html=1;" vertex="1" parent="1">
          <mxGeometry x="310" y="6125" width="50" height="50" as="geometry" />
        </mxCell>
        <mxCell id="JkesKB-A6FlV3lV3Gz2_-226" value="car" style="rhombus;whiteSpace=wrap;html=1;" vertex="1" parent="1">
          <mxGeometry x="425" y="6125" width="50" height="50" as="geometry" />
        </mxCell>
        <mxCell id="JkesKB-A6FlV3lV3Gz2_-229" style="edgeStyle=orthogonalEdgeStyle;rounded=0;orthogonalLoop=1;jettySize=auto;html=1;entryX=1;entryY=0.5;entryDx=0;entryDy=0;" edge="1" parent="1" source="JkesKB-A6FlV3lV3Gz2_-227" target="JkesKB-A6FlV3lV3Gz2_-223">
          <mxGeometry relative="1" as="geometry" />
        </mxCell>
        <mxCell id="JkesKB-A6FlV3lV3Gz2_-227" value="value" style="shape=hexagon;perimeter=hexagonPerimeter2;whiteSpace=wrap;html=1;fixedSize=1;" vertex="1" parent="1">
          <mxGeometry x="630" y="6070" width="120" height="80" as="geometry" />
        </mxCell>
        <mxCell id="JkesKB-A6FlV3lV3Gz2_-228" style="edgeStyle=orthogonalEdgeStyle;rounded=0;orthogonalLoop=1;jettySize=auto;html=1;entryX=0.995;entryY=0.422;entryDx=0;entryDy=0;entryPerimeter=0;" edge="1" parent="1" source="JkesKB-A6FlV3lV3Gz2_-227" target="JkesKB-A6FlV3lV3Gz2_-216">
          <mxGeometry relative="1" as="geometry" />
        </mxCell>
        <mxCell id="JkesKB-A6FlV3lV3Gz2_-230" value="index" style="shape=hexagon;perimeter=hexagonPerimeter2;whiteSpace=wrap;html=1;fixedSize=1;" vertex="1" parent="1">
          <mxGeometry x="620" y="5940" width="120" height="80" as="geometry" />
        </mxCell>
        <mxCell id="JkesKB-A6FlV3lV3Gz2_-231" style="edgeStyle=orthogonalEdgeStyle;rounded=0;orthogonalLoop=1;jettySize=auto;html=1;entryX=0.85;entryY=0.426;entryDx=0;entryDy=0;entryPerimeter=0;" edge="1" parent="1" source="JkesKB-A6FlV3lV3Gz2_-230" target="JkesKB-A6FlV3lV3Gz2_-219">
          <mxGeometry relative="1" as="geometry" />
        </mxCell>
        <mxCell id="JkesKB-A6FlV3lV3Gz2_-233" style="edgeStyle=orthogonalEdgeStyle;rounded=0;orthogonalLoop=1;jettySize=auto;html=1;entryX=1;entryY=0.5;entryDx=0;entryDy=0;" edge="1" parent="1" source="JkesKB-A6FlV3lV3Gz2_-232" target="JkesKB-A6FlV3lV3Gz2_-226">
          <mxGeometry relative="1" as="geometry" />
        </mxCell>
        <mxCell id="JkesKB-A6FlV3lV3Gz2_-232" value="key" style="shape=hexagon;perimeter=hexagonPerimeter2;whiteSpace=wrap;html=1;fixedSize=1;" vertex="1" parent="1">
          <mxGeometry x="630" y="6230" width="120" height="80" as="geometry" />
        </mxCell>
        <mxCell id="JkesKB-A6FlV3lV3Gz2_-234" value="" style="rounded=0;whiteSpace=wrap;html=1;" vertex="1" parent="1">
          <mxGeometry x="375" y="6610" width="120" height="60" as="geometry" />
        </mxCell>
      </root>
    </mxGraphModel>
  </diagram>
</mxfile>
